<?xml version="1.0" encoding="UTF-8"?>
<!DOCTYPE svg PUBLIC "-//W3C//DTD SVG 1.1//EN" "http://www.w3.org/Graphics/SVG/1.1/DTD/svg11.dtd">
<svg version="1.1" xmlns="http://www.w3.org/2000/svg" xmlns:xlink="http://www.w3.org/1999/xlink" x="0" y="0" width="255" height="255" viewBox="0, 0, 255, 255">
  <g id="Layer_1">
    <path d="M127.563,235 L126.045,234.991 L123.211,234.917 L120.46,234.774 L117.729,234.563 L115.018,234.285 L112.328,233.94 L109.661,233.529 L107.015,233.053 L104.393,232.514 L101.795,231.911 L99.222,231.245 L96.674,230.519 L94.153,229.731 L91.658,228.884 L89.192,227.978 L86.754,227.013 L84.345,225.991 L81.967,224.912 L79.62,223.778 L77.304,222.589 L75.022,221.346 L72.773,220.049 L70.558,218.7 L68.379,217.299 L66.236,215.848 L64.129,214.347 L62.061,212.796 L60.032,211.198 L58.042,209.552 L56.092,207.859 L54.184,206.121 L52.318,204.338 L50.495,202.511 L48.716,200.641 L46.982,198.729 L45.294,196.776 L43.652,194.782 L42.058,192.749 L40.512,190.677 L39.015,188.567 L37.568,186.42 L36.172,184.237 L34.828,182.019 L33.536,179.767 L32.298,177.481 L31.114,175.162 L29.984,172.812 L28.911,170.43 L27.894,168.019 L26.935,165.578 L26.034,163.109 L25.192,160.612 L24.41,158.088 L23.689,155.538 L23.03,152.962 L22.433,150.362 L21.899,147.738 L21.43,145.091 L21.025,142.422 L20.686,139.731 L20.414,137.02 L20.21,134.287 L20.073,131.536 L20.006,128.766 L20,127.437 L20,127.563 L20.009,126.045 L20.083,123.211 L20.226,120.46 L20.437,117.729 L20.715,115.018 L21.06,112.328 L21.471,109.661 L21.947,107.015 L22.486,104.393 L23.089,101.795 L23.754,99.222 L24.481,96.674 L25.269,94.153 L26.116,91.659 L27.022,89.192 L27.987,86.754 L29.009,84.345 L30.088,81.967 L31.222,79.62 L32.411,77.304 L33.654,75.022 L34.951,72.773 L36.3,70.558 L37.701,68.379 L39.152,66.236 L40.653,64.129 L42.204,62.061 L43.802,60.032 L45.448,58.042 L47.141,56.092 L48.879,54.184 L50.662,52.318 L52.489,50.495 L54.359,48.716 L56.271,46.982 L58.224,45.294 L60.218,43.652 L62.251,42.058 L64.323,40.512 L66.433,39.015 L68.58,37.568 L70.763,36.172 L72.981,34.828 L75.233,33.536 L77.519,32.298 L79.838,31.114 L82.188,29.984 L84.57,28.911 L86.981,27.894 L89.422,26.935 L91.891,26.034 L94.388,25.192 L96.912,24.411 L99.462,23.69 L102.038,23.03 L104.638,22.433 L107.262,21.899 L109.909,21.43 L112.578,21.025 L115.269,20.686 L117.98,20.414 L120.713,20.21 L123.464,20.073 L126.234,20.006 L127.563,20 L127.437,20 L128.955,20.009 L131.789,20.083 L134.54,20.226 L137.271,20.437 L139.982,20.715 L142.672,21.06 L145.339,21.471 L147.985,21.947 L150.607,22.486 L153.205,23.089 L155.778,23.755 L158.326,24.481 L160.847,25.269 L163.341,26.116 L165.808,27.022 L168.246,27.987 L170.655,29.009 L173.033,30.088 L175.38,31.222 L177.696,32.411 L179.978,33.654 L182.227,34.951 L184.442,36.3 L186.621,37.701 L188.764,39.152 L190.871,40.653 L192.939,42.204 L194.968,43.802 L196.958,45.448 L198.908,47.141 L200.816,48.879 L202.682,50.662 L204.505,52.489 L206.284,54.359 L208.018,56.271 L209.706,58.224 L211.348,60.218 L212.942,62.251 L214.488,64.323 L215.985,66.433 L217.432,68.58 L218.828,70.763 L220.172,72.981 L221.464,75.233 L222.702,77.519 L223.886,79.838 L225.016,82.188 L226.089,84.57 L227.106,86.981 L228.065,89.422 L228.966,91.891 L229.808,94.388 L230.589,96.912 L231.311,99.462 L231.97,102.038 L232.567,104.638 L233.101,107.262 L233.57,109.909 L233.975,112.578 L234.314,115.269 L234.586,117.98 L234.79,120.713 L234.927,123.464 L234.994,126.234 L235,127.563 L235,127.437 L234.991,128.955 L234.917,131.789 L234.774,134.54 L234.563,137.271 L234.285,139.982 L233.94,142.672 L233.529,145.339 L233.053,147.985 L232.514,150.607 L231.911,153.205 L231.245,155.778 L230.519,158.326 L229.731,160.847 L228.884,163.342 L227.978,165.808 L227.013,168.246 L225.991,170.655 L224.912,173.033 L223.778,175.38 L222.589,177.696 L221.346,179.978 L220.049,182.227 L218.7,184.442 L217.299,186.621 L215.848,188.764 L214.347,190.871 L212.796,192.939 L211.198,194.968 L209.552,196.958 L207.859,198.908 L206.121,200.816 L204.338,202.682 L202.511,204.505 L200.641,206.284 L198.729,208.018 L196.776,209.706 L194.782,211.348 L192.749,212.942 L190.677,214.488 L188.567,215.985 L186.42,217.432 L184.237,218.828 L182.019,220.172 L179.767,221.464 L177.481,222.702 L175.162,223.886 L172.812,225.016 L170.43,226.089 L168.019,227.106 L165.578,228.065 L163.109,228.966 L160.612,229.808 L158.088,230.589 L155.538,231.311 L152.962,231.97 L150.362,232.567 L147.738,233.101 L145.091,233.57 L142.422,233.975 L139.731,234.314 L137.019,234.586 L134.287,234.79 L131.536,234.927 L128.766,234.994 L127.437,235 L137.5,245 L137.5,245 L137.5,245 C137.5,239.477 133.023,235 127.5,235 C121.977,235 117.5,239.477 117.5,245 C117.5,245 117.5,245 117.5,245 L117.5,245 L117.5,245 C117.5,245.021 117.5,245.042 117.5,245.063 C117.535,250.586 122.041,255.035 127.563,255 L127.563,255 L129.272,254.987 L132.548,254.901 L135.805,254.733 L139.04,254.483 L142.253,254.154 L145.443,253.745 L148.608,253.259 L151.748,252.695 L154.86,252.054 L157.945,251.339 L161.001,250.55 L164.027,249.687 L167.022,248.752 L169.985,247.747 L172.915,246.671 L175.81,245.526 L178.67,244.313 L181.493,243.033 L184.28,241.687 L187.028,240.277 L189.736,238.802 L192.405,237.264 L195.032,235.665 L197.616,234.004 L200.158,232.284 L202.655,230.504 L205.107,228.667 L207.512,226.773 L209.871,224.823 L212.181,222.818 L214.442,220.759 L216.653,218.647 L218.813,216.483 L220.921,214.268 L222.976,212.003 L224.977,209.689 L226.923,207.326 L228.813,204.917 L230.646,202.461 L232.42,199.96 L234.136,197.415 L235.792,194.827 L237.387,192.197 L238.92,189.525 L240.39,186.813 L241.796,184.062 L243.136,181.272 L244.411,178.446 L245.619,175.583 L246.758,172.684 L247.829,169.752 L248.829,166.787 L249.758,163.79 L250.615,160.761 L251.398,157.703 L252.108,154.616 L252.742,151.501 L253.3,148.36 L253.78,145.193 L254.183,142.002 L254.506,138.788 L254.749,135.552 L254.911,132.295 L254.99,129.082 L255,127.563 L255,127.563 C255,127.521 255,127.479 255,127.437 L255,127.437 L254.987,125.728 L254.901,122.452 L254.733,119.195 L254.483,115.96 L254.154,112.747 L253.745,109.557 L253.259,106.392 L252.695,103.252 L252.054,100.14 L251.339,97.055 L250.55,93.999 L249.687,90.973 L248.752,87.978 L247.747,85.015 L246.671,82.085 L245.526,79.19 L244.313,76.33 L243.033,73.507 L241.687,70.72 L240.277,67.972 L238.802,65.264 L237.264,62.595 L235.665,59.968 L234.004,57.384 L232.284,54.842 L230.504,52.345 L228.667,49.893 L226.773,47.488 L224.823,45.129 L222.818,42.819 L220.759,40.558 L218.647,38.347 L216.483,36.187 L214.268,34.079 L212.003,32.024 L209.689,30.023 L207.326,28.077 L204.917,26.187 L202.461,24.354 L199.96,22.58 L197.415,20.864 L194.827,19.208 L192.197,17.613 L189.525,16.08 L186.813,14.61 L184.062,13.204 L181.272,11.864 L178.446,10.589 L175.583,9.381 L172.684,8.242 L169.752,7.171 L166.787,6.171 L163.789,5.242 L160.761,4.385 L157.703,3.602 L154.616,2.892 L151.501,2.258 L148.36,1.7 L145.193,1.22 L142.002,0.817 L138.788,0.494 L135.552,0.251 L132.295,0.089 L129.082,0.01 L127.563,0 L127.563,0 C127.521,-0 127.479,-0 127.437,0 L127.437,0 L125.728,0.013 L122.452,0.099 L119.195,0.267 L115.96,0.517 L112.747,0.846 L109.557,1.255 L106.392,1.741 L103.252,2.305 L100.139,2.946 L97.055,3.661 L93.999,4.45 L90.973,5.313 L87.978,6.248 L85.015,7.253 L82.085,8.329 L79.19,9.474 L76.33,10.687 L73.507,11.967 L70.72,13.313 L67.972,14.723 L65.264,16.198 L62.595,17.736 L59.968,19.335 L57.384,20.996 L54.842,22.716 L52.345,24.496 L49.893,26.333 L47.488,28.227 L45.129,30.177 L42.819,32.182 L40.558,34.241 L38.347,36.353 L36.187,38.517 L34.079,40.732 L32.024,42.997 L30.023,45.311 L28.077,47.674 L26.187,50.083 L24.354,52.539 L22.58,55.04 L20.864,57.585 L19.208,60.173 L17.613,62.803 L16.08,65.475 L14.61,68.187 L13.204,70.938 L11.864,73.728 L10.589,76.554 L9.381,79.417 L8.242,82.316 L7.171,85.248 L6.171,88.213 L5.242,91.211 L4.385,94.239 L3.602,97.297 L2.892,100.384 L2.258,103.499 L1.7,106.64 L1.22,109.807 L0.817,112.998 L0.494,116.212 L0.251,119.448 L0.089,122.705 L0.01,125.918 L0,127.437 L0,127.437 C-0,127.479 -0,127.521 0,127.563 L0,127.563 L0.013,129.272 L0.099,132.548 L0.267,135.805 L0.517,139.04 L0.846,142.253 L1.255,145.443 L1.741,148.608 L2.305,151.748 L2.946,154.861 L3.661,157.945 L4.45,161.001 L5.313,164.027 L6.248,167.022 L7.253,169.985 L8.329,172.915 L9.474,175.81 L10.687,178.67 L11.967,181.493 L13.313,184.28 L14.723,187.028 L16.198,189.736 L17.736,192.405 L19.335,195.032 L20.996,197.616 L22.716,200.158 L24.496,202.655 L26.333,205.107 L28.227,207.512 L30.177,209.871 L32.182,212.181 L34.241,214.442 L36.353,216.653 L38.517,218.813 L40.732,220.921 L42.997,222.976 L45.311,224.977 L47.674,226.923 L50.083,228.813 L52.539,230.646 L55.04,232.42 L57.585,234.136 L60.173,235.792 L62.803,237.387 L65.475,238.92 L68.187,240.39 L70.938,241.796 L73.728,243.136 L76.554,244.411 L79.417,245.619 L82.316,246.758 L85.248,247.829 L88.213,248.829 L91.21,249.758 L94.239,250.615 L97.297,251.398 L100.384,252.108 L103.499,252.742 L106.64,253.3 L109.807,253.78 L112.998,254.183 L116.212,254.506 L119.448,254.749 L122.705,254.911 L125.918,254.99 L127.437,255 C132.959,255.035 137.465,250.586 137.5,245.063 C137.535,239.541 133.086,235.035 127.563,235 L127.563,235" fill="#686868"/>
    <path d="M187.211,106.642 L130.642,163.211" fill-opacity="0" stroke="#686868" stroke-width="20" stroke-linecap="round"/>
    <path d="M72.358,106.642 L128.926,163.211" fill-opacity="0" stroke="#686868" stroke-width="20" stroke-linecap="round"/>
  </g>
</svg>
